<svg xmlns="http://www.w3.org/2000/svg" viewBox="0 0 820 420" font-family="Inter, Segoe UI, Arial, sans-serif">
<rect width="820" height="420" fill="#ffffff"/>
<text x="24" y="34" font-size="20" font-weight="700" fill="#0f172a">Stage A — MLM Training Loss (from scratch, 41M params)</text>
<line x1="60" y1="370.0" x2="600" y2="370.0" stroke="#e2e8f0"/>
<text x="50" y="374.0" font-size="12" fill="#64748b" text-anchor="end">4</text>
<line x1="60" y1="302.6086956521739" x2="600" y2="302.6086956521739" stroke="#e2e8f0"/>
<text x="50" y="306.6086956521739" font-size="12" fill="#64748b" text-anchor="end">5</text>
<line x1="60" y1="235.2173913043478" x2="600" y2="235.2173913043478" stroke="#e2e8f0"/>
<text x="50" y="239.2173913043478" font-size="12" fill="#64748b" text-anchor="end">6</text>
<line x1="60" y1="167.82608695652175" x2="600" y2="167.82608695652175" stroke="#e2e8f0"/>
<text x="50" y="171.82608695652175" font-size="12" fill="#64748b" text-anchor="end">7</text>
<line x1="60" y1="100.43478260869563" x2="600" y2="100.43478260869563" stroke="#e2e8f0"/>
<text x="50" y="104.43478260869563" font-size="12" fill="#64748b" text-anchor="end">8</text>
<text x="168.0" y="392" font-size="12" fill="#64748b" text-anchor="middle">1000</text>
<text x="276.0" y="392" font-size="12" fill="#64748b" text-anchor="middle">2000</text>
<text x="384.0" y="392" font-size="12" fill="#64748b" text-anchor="middle">3000</text>
<text x="492.0" y="392" font-size="12" fill="#64748b" text-anchor="middle">4000</text>
<text x="600.0" y="392" font-size="12" fill="#64748b" text-anchor="middle">5000</text>
<text x="20" y="215.0" font-size="12" fill="#64748b" transform="rotate(-90 20 215.0)" text-anchor="middle">MLM loss</text>
<text x="330.0" y="408" font-size="12" fill="#64748b" text-anchor="middle">training step</text>
<polyline points="70.8,87.6 81.6,154.5 92.4,174.8 103.2,176.9 114.0,151.2 124.8,205.5 135.6,193.9 146.4,233.2 157.2,207.6 168.0,193.7 178.8,224.6 189.6,203.1 200.4,227.1 211.2,253.0 222.0,214.0 232.8,239.6 243.6,224.2 254.4,237.9 265.2,226.4 276.0,249.4 286.8,233.6 297.6,255.1 308.4,236.7 319.2,262.4 330.0,266.1 340.8,226.2 351.6,264.9 362.4,263.9 373.2,305.3 384.0,271.8 394.8,252.1 405.6,334.6 416.4,253.9 427.2,304.1 438.0,256.6 448.8,255.0 459.6,271.5 470.4,307.3 481.2,290.2 492.0,265.8 502.8,270.7 513.6,349.9 524.4,314.4 535.2,293.9 546.0,291.0 556.8,272.0 567.6,313.0 578.4,255.0" fill="none" stroke="#6366f1" stroke-width="2.5"/>
<circle cx="276.0" cy="209.9" r="5" fill="#fff" stroke="#10b981" stroke-width="2.5"/>
<text x="285.0" y="203.9" font-size="11" fill="#10b981">val 6.375</text>
<circle cx="492.0" cy="249.3" r="5" fill="#fff" stroke="#10b981" stroke-width="2.5"/>
<text x="501.0" y="243.3" font-size="11" fill="#10b981">val 5.791</text>
<rect x="624" y="58" width="14" height="14" rx="3" fill="#6366f1"/>
<text x="646" y="70" font-size="13" fill="#475569">train loss</text>
<rect x="624" y="82" width="14" height="14" rx="3" fill="#10b981"/>
<text x="646" y="94" font-size="13" fill="#475569">val loss</text>
</svg>